<mxfile host="Electron" modified="2024-06-30T23:36:10.694Z" agent="Mozilla/5.0 (Windows NT 10.0; Win64; x64) AppleWebKit/537.36 (KHTML, like Gecko) draw.io/24.5.3 Chrome/124.0.6367.207 Electron/30.0.6 Safari/537.36" etag="w7NW8M0tGGWZigJVabd2" version="24.5.3" type="device">
  <diagram name="Página-1" id="BdXiPCNQnzHatcCRTRfM">
    <mxGraphModel dx="1877" dy="629" grid="1" gridSize="10" guides="1" tooltips="1" connect="1" arrows="1" fold="1" page="1" pageScale="1" pageWidth="827" pageHeight="1169" math="0" shadow="0">
      <root>
        <mxCell id="0" />
        <mxCell id="1" parent="0" />
        <mxCell id="O5m_Qnvim_eZEojXNHgc-8" style="edgeStyle=orthogonalEdgeStyle;rounded=0;orthogonalLoop=1;jettySize=auto;html=1;exitX=0.5;exitY=1;exitDx=0;exitDy=0;entryX=0.5;entryY=0;entryDx=0;entryDy=0;" edge="1" parent="1" source="O5m_Qnvim_eZEojXNHgc-1" target="O5m_Qnvim_eZEojXNHgc-2">
          <mxGeometry relative="1" as="geometry" />
        </mxCell>
        <mxCell id="O5m_Qnvim_eZEojXNHgc-1" value="Cliente chega" style="rounded=1;whiteSpace=wrap;html=1;" vertex="1" parent="1">
          <mxGeometry x="460" y="40" width="120" height="60" as="geometry" />
        </mxCell>
        <mxCell id="O5m_Qnvim_eZEojXNHgc-9" style="edgeStyle=orthogonalEdgeStyle;rounded=0;orthogonalLoop=1;jettySize=auto;html=1;exitX=0.5;exitY=1;exitDx=0;exitDy=0;entryX=0.5;entryY=0;entryDx=0;entryDy=0;" edge="1" parent="1" source="O5m_Qnvim_eZEojXNHgc-2" target="O5m_Qnvim_eZEojXNHgc-3">
          <mxGeometry relative="1" as="geometry" />
        </mxCell>
        <mxCell id="O5m_Qnvim_eZEojXNHgc-2" value="Cliente aguarda" style="ellipse;whiteSpace=wrap;html=1;aspect=fixed;" vertex="1" parent="1">
          <mxGeometry x="480" y="140" width="80" height="80" as="geometry" />
        </mxCell>
        <mxCell id="O5m_Qnvim_eZEojXNHgc-7" style="edgeStyle=orthogonalEdgeStyle;rounded=0;orthogonalLoop=1;jettySize=auto;html=1;exitX=0.5;exitY=1;exitDx=0;exitDy=0;" edge="1" parent="1" source="O5m_Qnvim_eZEojXNHgc-3" target="O5m_Qnvim_eZEojXNHgc-16">
          <mxGeometry relative="1" as="geometry">
            <mxPoint x="520" y="500" as="targetPoint" />
          </mxGeometry>
        </mxCell>
        <mxCell id="O5m_Qnvim_eZEojXNHgc-22" value="70%" style="edgeLabel;html=1;align=center;verticalAlign=middle;resizable=0;points=[];" vertex="1" connectable="0" parent="O5m_Qnvim_eZEojXNHgc-7">
          <mxGeometry x="-0.5341" y="1" relative="1" as="geometry">
            <mxPoint x="19" as="offset" />
          </mxGeometry>
        </mxCell>
        <mxCell id="O5m_Qnvim_eZEojXNHgc-3" value="Cliente higieniza as mãos" style="rounded=1;whiteSpace=wrap;html=1;" vertex="1" parent="1">
          <mxGeometry x="460" y="260" width="120" height="60" as="geometry" />
        </mxCell>
        <mxCell id="O5m_Qnvim_eZEojXNHgc-15" style="edgeStyle=orthogonalEdgeStyle;rounded=0;orthogonalLoop=1;jettySize=auto;html=1;exitX=0.5;exitY=1;exitDx=0;exitDy=0;entryX=0.5;entryY=0;entryDx=0;entryDy=0;" edge="1" parent="1" source="O5m_Qnvim_eZEojXNHgc-4" target="O5m_Qnvim_eZEojXNHgc-14">
          <mxGeometry relative="1" as="geometry" />
        </mxCell>
        <mxCell id="O5m_Qnvim_eZEojXNHgc-4" value="Cliente aguarda provador" style="rounded=1;whiteSpace=wrap;html=1;" vertex="1" parent="1">
          <mxGeometry x="250" y="330" width="120" height="60" as="geometry" />
        </mxCell>
        <mxCell id="O5m_Qnvim_eZEojXNHgc-19" style="edgeStyle=orthogonalEdgeStyle;rounded=0;orthogonalLoop=1;jettySize=auto;html=1;exitX=0.5;exitY=1;exitDx=0;exitDy=0;entryX=0;entryY=0.5;entryDx=0;entryDy=0;" edge="1" parent="1" source="O5m_Qnvim_eZEojXNHgc-14" target="O5m_Qnvim_eZEojXNHgc-16">
          <mxGeometry relative="1" as="geometry" />
        </mxCell>
        <mxCell id="O5m_Qnvim_eZEojXNHgc-14" value="cliente usa o provador" style="ellipse;whiteSpace=wrap;html=1;aspect=fixed;" vertex="1" parent="1">
          <mxGeometry x="270" y="440" width="80" height="80" as="geometry" />
        </mxCell>
        <mxCell id="O5m_Qnvim_eZEojXNHgc-18" style="edgeStyle=orthogonalEdgeStyle;rounded=0;orthogonalLoop=1;jettySize=auto;html=1;exitX=0.5;exitY=1;exitDx=0;exitDy=0;" edge="1" parent="1" source="O5m_Qnvim_eZEojXNHgc-16" target="O5m_Qnvim_eZEojXNHgc-17">
          <mxGeometry relative="1" as="geometry" />
        </mxCell>
        <mxCell id="O5m_Qnvim_eZEojXNHgc-16" value="Cliente aguarda pagamento" style="ellipse;whiteSpace=wrap;html=1;aspect=fixed;" vertex="1" parent="1">
          <mxGeometry x="480" y="530" width="80" height="80" as="geometry" />
        </mxCell>
        <mxCell id="O5m_Qnvim_eZEojXNHgc-17" value="Cliente paga" style="rounded=1;whiteSpace=wrap;html=1;" vertex="1" parent="1">
          <mxGeometry x="460" y="700" width="120" height="60" as="geometry" />
        </mxCell>
        <mxCell id="O5m_Qnvim_eZEojXNHgc-20" style="edgeStyle=orthogonalEdgeStyle;rounded=0;orthogonalLoop=1;jettySize=auto;html=1;exitX=0;exitY=0.5;exitDx=0;exitDy=0;entryX=0.433;entryY=0.047;entryDx=0;entryDy=0;entryPerimeter=0;" edge="1" parent="1" source="O5m_Qnvim_eZEojXNHgc-3" target="O5m_Qnvim_eZEojXNHgc-4">
          <mxGeometry relative="1" as="geometry" />
        </mxCell>
        <mxCell id="O5m_Qnvim_eZEojXNHgc-21" value="30%" style="edgeLabel;html=1;align=center;verticalAlign=middle;resizable=0;points=[];" vertex="1" connectable="0" parent="O5m_Qnvim_eZEojXNHgc-20">
          <mxGeometry x="0.2449" y="1" relative="1" as="geometry">
            <mxPoint x="35" y="-11" as="offset" />
          </mxGeometry>
        </mxCell>
        <mxCell id="O5m_Qnvim_eZEojXNHgc-23" value="Cliente" style="shape=umlActor;verticalLabelPosition=bottom;verticalAlign=top;html=1;outlineConnect=0;" vertex="1" parent="1">
          <mxGeometry x="410" y="30" width="30" height="60" as="geometry" />
        </mxCell>
        <mxCell id="O5m_Qnvim_eZEojXNHgc-27" style="edgeStyle=orthogonalEdgeStyle;rounded=0;orthogonalLoop=1;jettySize=auto;html=1;exitX=1;exitY=0.5;exitDx=0;exitDy=0;entryX=1;entryY=0.5;entryDx=0;entryDy=0;" edge="1" parent="1" source="O5m_Qnvim_eZEojXNHgc-24" target="O5m_Qnvim_eZEojXNHgc-25">
          <mxGeometry relative="1" as="geometry" />
        </mxCell>
        <mxCell id="O5m_Qnvim_eZEojXNHgc-24" value="A dar gel ao cliente" style="rounded=1;whiteSpace=wrap;html=1;" vertex="1" parent="1">
          <mxGeometry x="580" y="260" width="120" height="60" as="geometry" />
        </mxCell>
        <mxCell id="O5m_Qnvim_eZEojXNHgc-26" style="edgeStyle=orthogonalEdgeStyle;rounded=0;orthogonalLoop=1;jettySize=auto;html=1;exitX=0.5;exitY=1;exitDx=0;exitDy=0;entryX=0.5;entryY=0;entryDx=0;entryDy=0;" edge="1" parent="1" source="O5m_Qnvim_eZEojXNHgc-25" target="O5m_Qnvim_eZEojXNHgc-24">
          <mxGeometry relative="1" as="geometry" />
        </mxCell>
        <mxCell id="O5m_Qnvim_eZEojXNHgc-25" value="Livre" style="ellipse;whiteSpace=wrap;html=1;aspect=fixed;" vertex="1" parent="1">
          <mxGeometry x="600" y="150" width="80" height="80" as="geometry" />
        </mxCell>
        <mxCell id="O5m_Qnvim_eZEojXNHgc-28" value="Funcionário da entrada" style="shape=umlActor;verticalLabelPosition=bottom;verticalAlign=top;html=1;outlineConnect=0;" vertex="1" parent="1">
          <mxGeometry x="710" y="80" width="30" height="60" as="geometry" />
        </mxCell>
        <mxCell id="O5m_Qnvim_eZEojXNHgc-31" style="edgeStyle=orthogonalEdgeStyle;rounded=0;orthogonalLoop=1;jettySize=auto;html=1;exitX=0.5;exitY=1;exitDx=0;exitDy=0;entryX=0.5;entryY=0;entryDx=0;entryDy=0;" edge="1" parent="1" source="O5m_Qnvim_eZEojXNHgc-29" target="O5m_Qnvim_eZEojXNHgc-30">
          <mxGeometry relative="1" as="geometry" />
        </mxCell>
        <mxCell id="O5m_Qnvim_eZEojXNHgc-29" value="Fazer a higienização do provador" style="rounded=1;whiteSpace=wrap;html=1;" vertex="1" parent="1">
          <mxGeometry x="90" y="330" width="120" height="60" as="geometry" />
        </mxCell>
        <mxCell id="O5m_Qnvim_eZEojXNHgc-34" style="edgeStyle=orthogonalEdgeStyle;rounded=0;orthogonalLoop=1;jettySize=auto;html=1;exitX=0.5;exitY=1;exitDx=0;exitDy=0;" edge="1" parent="1" source="O5m_Qnvim_eZEojXNHgc-30" target="O5m_Qnvim_eZEojXNHgc-32">
          <mxGeometry relative="1" as="geometry" />
        </mxCell>
        <mxCell id="O5m_Qnvim_eZEojXNHgc-30" value="livre" style="ellipse;whiteSpace=wrap;html=1;aspect=fixed;" vertex="1" parent="1">
          <mxGeometry x="110" y="510" width="80" height="80" as="geometry" />
        </mxCell>
        <mxCell id="O5m_Qnvim_eZEojXNHgc-35" style="edgeStyle=orthogonalEdgeStyle;rounded=0;orthogonalLoop=1;jettySize=auto;html=1;entryX=0;entryY=0.5;entryDx=0;entryDy=0;" edge="1" parent="1" source="O5m_Qnvim_eZEojXNHgc-32" target="O5m_Qnvim_eZEojXNHgc-29">
          <mxGeometry relative="1" as="geometry">
            <Array as="points">
              <mxPoint x="40" y="730" />
              <mxPoint x="40" y="360" />
            </Array>
          </mxGeometry>
        </mxCell>
        <mxCell id="O5m_Qnvim_eZEojXNHgc-36" value="Se existirem clientes&lt;br&gt;à espera" style="edgeLabel;html=1;align=center;verticalAlign=middle;resizable=0;points=[];" vertex="1" connectable="0" parent="O5m_Qnvim_eZEojXNHgc-35">
          <mxGeometry x="0.0791" y="2" relative="1" as="geometry">
            <mxPoint as="offset" />
          </mxGeometry>
        </mxCell>
        <mxCell id="O5m_Qnvim_eZEojXNHgc-32" value="pagamento" style="rounded=1;whiteSpace=wrap;html=1;" vertex="1" parent="1">
          <mxGeometry x="90" y="700" width="120" height="60" as="geometry" />
        </mxCell>
        <mxCell id="O5m_Qnvim_eZEojXNHgc-37" style="edgeStyle=orthogonalEdgeStyle;rounded=0;orthogonalLoop=1;jettySize=auto;html=1;exitX=0;exitY=0.5;exitDx=0;exitDy=0;entryX=0.088;entryY=1.06;entryDx=0;entryDy=0;entryPerimeter=0;" edge="1" parent="1" source="O5m_Qnvim_eZEojXNHgc-30" target="O5m_Qnvim_eZEojXNHgc-29">
          <mxGeometry relative="1" as="geometry" />
        </mxCell>
      </root>
    </mxGraphModel>
  </diagram>
</mxfile>
